{"asset":{"version":"2.0","generator":"Khronos glTF Blender I/O v1.8.31"},"scene":0,"scenes":[{"name":"Scene","nodes":[0]}],"nodes":[{"mesh":0,"name":"Cube"}],"meshes":[{"name":"Cube","primitives":[{"attributes":{"POSITION":0,"NORMAL":1,"TEXCOORD_0":2},"indices":3,"material":0}]}],"materials":[{"doubleSided":true,"name":"Material","pbrMetallicRoughness":{"baseColorTexture":{"index":0},"metallicRoughnessTexture":{"index":0}}}],"textures":[{"sampler":0,"source":0}],"images":[{"mimeType":"image/png","name":"wood_texture_dougong","uri":"data:image/png;base64,"}],"samplers":[{"magFilter":9729,"minFilter":9987,"wrapS":10497,"wrapT":10497}],"accessors":[{"bufferView":0,"componentType":5126,"count":24,"max":[0.5,0.5,0.5],"min":[-0.5,-0.5,-0.5],"type":"VEC3"},{"bufferView":1,"componentType":5126,"count":24,"type":"VEC3"},{"bufferView":2,"componentType":5126,"count":24,"type":"VEC2"},{"bufferView":3,"componentType":5123,"count":36,"type":"SCALAR"}],"bufferViews":[{"buffer":0,"byteLength":288,"byteOffset":0,"target":34962},{"buffer":0,"byteLength":288,"byteOffset":288,"target":34962},{"buffer":0,"byteLength":192,"byteOffset":576,"target":34962},{"buffer":0,"byteLength":72,"byteOffset":768,"target":34963}],"buffers":[{"byteLength":840,"uri":"data:application/octet-stream;base64,"}]}